<?xml version="1.0" encoding="UTF-8"?>
<svg width="64px" height="64px" viewBox="0 0 64 64" version="1.1" xmlns="http://www.w3.org/2000/svg" xmlns:xlink="http://www.w3.org/1999/xlink">
    <!-- Generator: Sketch 64 (93537) - https://sketch.com -->
    <title>列表2</title>
    <desc>Created with Sketch.</desc>
    <g id="列表2" stroke="none" stroke-width="1" fill="none" fill-rule="evenodd">
        <g id="编组" transform="translate(7.000000, 13.000000)" fill="#7E89A4">
            <path d="M4,30 C6.209139,30 8,31.790861 8,34 C8,36.209139 6.209139,38 4,38 C1.790861,38 2.705415e-16,36.209139 0,34 C-2.705415e-16,31.790861 1.790861,30 4,30 Z M47.5,31 C48.8807119,31 50,32.1192881 50,33.5 L50,34.5 C50,35.8807119 48.8807119,37 47.5,37 L14.5,37 C13.1192881,37 12,35.8807119 12,34.5 L12,33.5 C12,32.1192881 13.1192881,31 14.5,31 L47.5,31 Z M4,15 C6.209139,15 8,16.790861 8,19 C8,21.209139 6.209139,23 4,23 C1.790861,23 2.705415e-16,21.209139 0,19 C-2.705415e-16,16.790861 1.790861,15 4,15 Z M47.5,16 C48.8807119,16 50,17.1192881 50,18.5 L50,19.5 C50,20.8807119 48.8807119,22 47.5,22 L14.5,22 C13.1192881,22 12,20.8807119 12,19.5 L12,18.5 C12,17.1192881 13.1192881,16 14.5,16 L47.5,16 Z M4,0 C6.209139,-4.05812251e-16 8,1.790861 8,4 C8,6.209139 6.209139,8 4,8 C1.790861,8 2.705415e-16,6.209139 0,4 C-2.705415e-16,1.790861 1.790861,4.05812251e-16 4,0 Z M47.5,1 C48.8807119,1 50,2.11928813 50,3.5 L50,4.5 C50,5.88071187 48.8807119,7 47.5,7 L14.5,7 C13.1192881,7 12,5.88071187 12,4.5 L12,3.5 C12,2.11928813 13.1192881,1 14.5,1 L47.5,1 Z" id="矩形-2"></path>
        </g>
    </g>
</svg>