<?xml version="1.0" encoding="UTF-8"?>
<svg width="64px" height="64px" viewBox="0 0 64 64" version="1.1" xmlns="http://www.w3.org/2000/svg" xmlns:xlink="http://www.w3.org/1999/xlink">
    <!-- Generator: Sketch 64 (93537) - https://sketch.com -->
    <title>列表2press</title>
    <desc>Created with Sketch.</desc>
    <g id="列表2press" stroke="none" stroke-width="1" fill="none" fill-rule="evenodd">
        <path d="M11,43 C13.209139,43 15,44.790861 15,47 C15,49.209139 13.209139,51 11,51 C8.790861,51 7,49.209139 7,47 C7,44.790861 8.790861,43 11,43 Z M54.5,44 C55.8807119,44 57,45.1192881 57,46.5 L57,47.5 C57,48.8807119 55.8807119,50 54.5,50 L21.5,50 C20.1192881,50 19,48.8807119 19,47.5 L19,46.5 C19,45.1192881 20.1192881,44 21.5,44 L54.5,44 Z M11,28 C13.209139,28 15,29.790861 15,32 C15,34.209139 13.209139,36 11,36 C8.790861,36 7,34.209139 7,32 C7,29.790861 8.790861,28 11,28 Z M54.5,29 C55.8807119,29 57,30.1192881 57,31.5 L57,32.5 C57,33.8807119 55.8807119,35 54.5,35 L21.5,35 C20.1192881,35 19,33.8807119 19,32.5 L19,31.5 C19,30.1192881 20.1192881,29 21.5,29 L54.5,29 Z M11,13 C13.209139,13 15,14.790861 15,17 C15,19.209139 13.209139,21 11,21 C8.790861,21 7,19.209139 7,17 C7,14.790861 8.790861,13 11,13 Z M54.5,14 C55.8807119,14 57,15.1192881 57,16.5 L57,17.5 C57,18.8807119 55.8807119,20 54.5,20 L21.5,20 C20.1192881,20 19,18.8807119 19,17.5 L19,16.5 C19,15.1192881 20.1192881,14 21.5,14 L54.5,14 Z" id="矩形-2" fill="#FFFFFF"></path>
    </g>
</svg>