<?xml version="1.0" encoding="UTF-8"?>
<svg width="64px" height="64px" viewBox="0 0 64 64" version="1.1" xmlns="http://www.w3.org/2000/svg" xmlns:xlink="http://www.w3.org/1999/xlink">
    <!-- Generator: Sketch 64 (93537) - https://sketch.com -->
    <title>列表1press</title>
    <desc>Created with Sketch.</desc>
    <g id="列表1press" stroke="none" stroke-width="1" fill="none" fill-rule="evenodd">
        <path d="M29,33 C30.1045695,33 31,33.8954305 31,35 L31,55 C31,56.1045695 30.1045695,57 29,57 L9,57 C7.8954305,57 7,56.1045695 7,55 L7,35 C7,33.8954305 7.8954305,33 9,33 L29,33 Z M26,37 L12,37 C11.4871642,37 11.0644928,37.3860402 11.0067277,37.8833789 L11,38 L11,52 C11,52.5128358 11.3860402,52.9355072 11.8833789,52.9932723 L12,53 L26,53 C26.5128358,53 26.9355072,52.6139598 26.9932723,52.1166211 L27,52 L27,38 C27,37.4477153 26.5522847,37 26,37 Z M55,49 C56.1045695,49 57,49.8954305 57,51 C57,52.1045695 56.1045695,53 55,53 L35,53 C33.8954305,53 33,52.1045695 33,51 C33,49.8954305 33.8954305,49 35,49 L55,49 Z M55,37 C56.1045695,37 57,37.8954305 57,39 C57,40.1045695 56.1045695,41 55,41 L35,41 C33.8954305,41 33,40.1045695 33,39 C33,37.8954305 33.8954305,37 35,37 L55,37 Z M29,7 C30.1045695,7 31,7.8954305 31,9 L31,29 C31,30.1045695 30.1045695,31 29,31 L9,31 C7.8954305,31 7,30.1045695 7,29 L7,9 C7,7.8954305 7.8954305,7 9,7 L29,7 Z M55,7 C56.1045695,7 57,7.8954305 57,9 L57,29 C57,30.1045695 56.1045695,31 55,31 L35,31 C33.8954305,31 33,30.1045695 33,29 L33,9 C33,7.8954305 33.8954305,7 35,7 L55,7 Z M26,11 L12,11 C11.4871642,11 11.0644928,11.3860402 11.0067277,11.8833789 L11,12 L11,26 C11,26.5128358 11.3860402,26.9355072 11.8833789,26.9932723 L12,27 L26,27 C26.5128358,27 26.9355072,26.6139598 26.9932723,26.1166211 L27,26 L27,12 C27,11.4477153 26.5522847,11 26,11 Z M52,11 L38,11 C37.4871642,11 37.0644928,11.3860402 37.0067277,11.8833789 L37,12 L37,26 C37,26.5128358 37.3860402,26.9355072 37.8833789,26.9932723 L38,27 L52,27 C52.5128358,27 52.9355072,26.6139598 52.9932723,26.1166211 L53,26 L53,12 C53,11.4477153 52.5522847,11 52,11 Z" id="矩形-2" fill="#FFFFFF"></path>
    </g>
</svg>